<svg width="149" height="40" viewBox="0 0 149 40" fill="none" xmlns="http://www.w3.org/2000/svg">
<path d="M51.642 17.8218L46.2946 6.49222V17.8218H43V0H46.4974L51.642 10.8713V0H54.9113V17.8218H51.642Z" fill="#1A3957"/>
<path d="M60.8376 9.36917V9.62376H64.9432V9.36917C64.9432 8.63932 64.7574 8.07072 64.3857 7.66337C64.014 7.23904 63.5156 7.02687 62.8904 7.02687C62.2653 7.02687 61.7669 7.23904 61.3952 7.66337C61.0235 8.07072 60.8376 8.63932 60.8376 9.36917ZM64.9432 13.0099L68.1365 13.7228C68.1196 13.8416 68.0942 14.0028 68.0604 14.2065C68.0266 14.3932 67.8999 14.7412 67.6803 15.2504C67.4607 15.7426 67.1734 16.1839 66.8186 16.5743C66.4807 16.9477 65.957 17.2956 65.2473 17.6181C64.5546 17.9236 63.7521 18.0764 62.8397 18.0764C61.2178 18.0764 59.9084 17.6096 58.9116 16.6761C57.9316 15.7426 57.4416 14.4526 57.4416 12.8062V9.77652C57.4416 8.13013 57.9485 6.8232 58.9622 5.85573C59.976 4.88826 61.3023 4.40453 62.9411 4.40453C64.5293 4.40453 65.8049 4.87977 66.7679 5.83027C67.7479 6.76379 68.2378 8.04526 68.2378 9.67468V11.7369H60.8376V12.7298C60.8376 13.4597 61.0235 14.0368 61.3952 14.4611C61.7669 14.8685 62.2653 15.0721 62.8904 15.0721C63.448 15.0721 63.8957 14.9024 64.2336 14.5629C64.5715 14.2235 64.7743 13.884 64.8419 13.5446L64.9432 13.0099Z" fill="#1A3957"/>
<path d="M72.4785 17.8218L68.753 4.65912H72.3518L74.2018 12.628L76.1279 4.65912H78.4088L80.3349 12.628L82.1849 4.65912H85.6062L81.8554 17.8218H78.9663L77.1923 10.4894L75.3929 17.8218H72.4785Z" fill="#1A3957"/>
<path d="M43.1267 39.7454V21.9236H46.8268V39.7454H43.1267Z" fill="#1A3957"/>
<path d="M49.7506 39.7454V26.5827H52.7157L52.8678 28.1103C53.6281 26.9222 54.777 26.3281 56.3145 26.3281C57.5647 26.3281 58.5531 26.744 59.2796 27.5757C60.023 28.3904 60.3947 29.5361 60.3947 31.0127V39.7454H56.9987V31.802C56.9987 30.1556 56.3821 29.3324 55.1487 29.3324C54.5236 29.3324 54.0336 29.5361 53.6788 29.9434C53.324 30.3338 53.1466 30.9363 53.1466 31.7511V39.7454H49.7506Z" fill="#1A3957"/>
<path d="M69.7628 34.4753H73.0574V34.7553C73.0574 36.3508 72.559 37.6238 71.5622 38.5743C70.5822 39.5248 69.3151 40 67.7607 40C66.2063 40 64.9476 39.5417 63.9845 38.6252C63.0215 37.7086 62.54 36.4526 62.54 34.8571V31.5728C62.54 29.9774 63.03 28.7044 64.0099 27.7539C65.0067 26.8034 66.2823 26.3281 67.8367 26.3281C69.3911 26.3281 70.6498 26.7864 71.6128 27.703C72.5759 28.6195 73.0574 29.8755 73.0574 31.471V31.7256H69.7628V31.5474C69.7628 30.8515 69.5938 30.3083 69.2559 29.918C68.918 29.5276 68.4534 29.3324 67.862 29.3324C67.2707 29.3324 66.7976 29.5276 66.4428 29.918C66.1049 30.3083 65.936 30.8515 65.936 31.5474V34.7808C65.936 35.4767 66.1049 36.0198 66.4428 36.4102C66.7976 36.8006 67.2707 36.9958 67.862 36.9958C68.4534 36.9958 68.918 36.8006 69.2559 36.4102C69.5938 36.0198 69.7628 35.4767 69.7628 34.7808V34.4753Z" fill="#1A3957"/>
<path d="M78.4838 31.2928V31.5474H82.5894V31.2928C82.5894 30.5629 82.4036 29.9943 82.0319 29.587C81.6602 29.1627 81.1617 28.9505 80.5366 28.9505C79.9115 28.9505 79.4131 29.1627 79.0414 29.587C78.6697 29.9943 78.4838 30.5629 78.4838 31.2928ZM82.5894 34.9335L85.7826 35.6464C85.7657 35.7652 85.7404 35.9264 85.7066 36.1301C85.6728 36.3168 85.5461 36.6648 85.3265 37.174C85.1068 37.6662 84.8196 38.1075 84.4648 38.4979C84.1269 38.8713 83.6031 39.2192 82.8935 39.5417C82.2008 39.8472 81.3983 40 80.4859 40C78.864 40 77.5546 39.5332 76.5577 38.5997C75.5778 37.6662 75.0878 36.3762 75.0878 34.7298V31.7001C75.0878 30.0537 75.5947 28.7468 76.6084 27.7793C77.6221 26.8119 78.9484 26.3281 80.5873 26.3281C82.1755 26.3281 83.4511 26.8034 84.4141 27.7539C85.394 28.6874 85.884 29.9689 85.884 31.5983V33.6605H78.4838V34.6535C78.4838 35.3833 78.6697 35.9604 79.0414 36.3847C79.4131 36.7921 79.9115 36.9958 80.5366 36.9958C81.0942 36.9958 81.5419 36.826 81.8798 36.4866C82.2177 36.1471 82.4204 35.8076 82.488 35.4682L82.5894 34.9335Z" fill="#1A3957"/>
<path d="M88.1613 39.7454V26.5827H91.1265L91.2785 28.1103C92.0388 26.9222 93.1877 26.3281 94.7252 26.3281C95.9755 26.3281 96.9639 26.744 97.6904 27.5757C98.4338 28.3904 98.8055 29.5361 98.8055 31.0127V39.7454H95.4095V31.802C95.4095 30.1556 94.7928 29.3324 93.5594 29.3324C92.9343 29.3324 92.4443 29.5361 92.0895 29.9434C91.7347 30.3338 91.5573 30.9363 91.5573 31.7511V39.7454H88.1613Z" fill="#1A3957"/>
<path d="M105.24 23.4512V26.5827H108.433V29.2051H105.24V35.5446C105.24 36.0707 105.349 36.4441 105.569 36.6648C105.806 36.8854 106.169 36.9958 106.659 36.9958C106.879 36.9958 107.107 36.9788 107.343 36.9448C107.58 36.9109 107.766 36.8769 107.901 36.843L108.078 36.8175L108.433 39.6181C107.791 39.8727 106.828 40 105.544 40C104.378 40 103.466 39.686 102.807 39.058C102.165 38.413 101.844 37.4965 101.844 36.3083V29.2051H99.9429V26.5827H101.844V23.4512H105.24Z" fill="#1A3957"/>
<path d="M110.463 39.7454V26.5827H113.935V39.7454H110.463ZM112.212 20.9052C112.82 20.9052 113.319 21.1089 113.707 21.5163C114.113 21.9066 114.315 22.4074 114.315 23.0184C114.315 23.6124 114.113 24.1132 113.707 24.5205C113.319 24.9109 112.82 25.1061 112.212 25.1061C111.587 25.1061 111.072 24.9109 110.666 24.5205C110.277 24.1132 110.083 23.6124 110.083 23.0184C110.083 22.4074 110.277 21.9066 110.666 21.5163C111.072 21.1089 111.587 20.9052 112.212 20.9052Z" fill="#1A3957"/>
<path d="M119.614 39.7454L115.331 26.5827H118.93L121.261 34.8062L123.568 26.5827H126.989L122.706 39.7454H119.614Z" fill="#1A3957"/>
<path d="M130.903 31.2928V31.5474H135.008V31.2928C135.008 30.5629 134.822 29.9943 134.451 29.587C134.079 29.1627 133.581 28.9505 132.955 28.9505C132.33 28.9505 131.832 29.1627 131.46 29.587C131.088 29.9943 130.903 30.5629 130.903 31.2928ZM135.008 34.9335L138.201 35.6464C138.185 35.7652 138.159 35.9264 138.125 36.1301C138.092 36.3168 137.965 36.6648 137.745 37.174C137.526 37.6662 137.238 38.1075 136.884 38.4979C136.546 38.8713 136.022 39.2192 135.312 39.5417C134.62 39.8472 133.817 40 132.905 40C131.283 40 129.973 39.5332 128.977 38.5997C127.997 37.6662 127.507 36.3762 127.507 34.7298V31.7001C127.507 30.0537 128.013 28.7468 129.027 27.7793C130.041 26.8119 131.367 26.3281 133.006 26.3281C134.594 26.3281 135.87 26.8034 136.833 27.7539C137.813 28.6874 138.303 29.9689 138.303 31.5983V33.6605H130.903V34.6535C130.903 35.3833 131.088 35.9604 131.46 36.3847C131.832 36.7921 132.33 36.9958 132.955 36.9958C133.513 36.9958 133.961 36.826 134.299 36.4866C134.636 36.1471 134.839 35.8076 134.907 35.4682L135.008 34.9335Z" fill="#1A3957"/>
<path d="M145.376 31.7511C146.576 32.2433 147.479 32.8289 148.088 33.5078C148.696 34.1867 149 35.0184 149 36.0028C149 37.2249 148.561 38.2008 147.682 38.9307C146.82 39.6436 145.697 40 144.312 40C143.72 40 143.146 39.9321 142.588 39.7963C142.031 39.6605 141.558 39.4908 141.169 39.2871C140.797 39.0835 140.468 38.8798 140.181 38.6761C139.893 38.4724 139.674 38.3027 139.522 38.1669L139.319 37.9632L141.068 35.7737C141.203 35.8925 141.372 36.0368 141.574 36.2065C141.794 36.3593 142.183 36.5799 142.74 36.8685C143.298 37.14 143.796 37.2758 144.235 37.2758C144.675 37.2758 145.013 37.174 145.249 36.9703C145.503 36.7666 145.629 36.5035 145.629 36.181C145.629 35.8416 145.46 35.5276 145.122 35.239C144.785 34.9335 144.185 34.6025 143.323 34.2461C141.11 33.3296 140.003 31.9463 140.003 30.0962C140.003 28.9929 140.417 28.0934 141.245 27.3975C142.09 26.6846 143.154 26.3281 144.438 26.3281C145.317 26.3281 146.128 26.4724 146.871 26.761C147.631 27.0495 148.164 27.338 148.468 27.6266L148.924 28.0594L147.15 30.2744C147.065 30.1895 146.947 30.0792 146.795 29.9434C146.643 29.8076 146.339 29.6294 145.883 29.4088C145.444 29.1711 145.021 29.0523 144.616 29.0523C144.244 29.0523 143.948 29.1457 143.729 29.3324C143.509 29.5191 143.399 29.7397 143.399 29.9943C143.399 30.6223 144.058 31.2079 145.376 31.7511Z" fill="#1A3957"/>
<path fill-rule="evenodd" clip-rule="evenodd" d="M33.5036 30.9631C33.5012 30.9669 33.4988 30.9707 33.4964 30.9745L33.5036 30.9631Z" fill="#0BA58D"/>
<path fill-rule="evenodd" clip-rule="evenodd" d="M18.3454 17.8235C23.2358 17.8235 27.2003 13.8591 27.2003 8.96865C27.2003 8.55629 27.1721 8.15051 27.1175 7.75313C26.8347 5.69313 25.8434 3.85902 24.3972 2.50457C22.814 1.02171 20.6857 0.11377 18.3454 0.11377C18.1783 0.11377 18.0123 0.118398 17.8474 0.127535C16.1989 0.218914 14.6707 0.761211 13.384 1.63314C11.807 2.70183 10.5929 4.26572 9.96499 6.10147C9.90126 6.30833 9.84098 6.51669 9.7842 6.7265C9.75284 6.84236 9.72256 6.95867 9.69335 7.07541C9.56049 7.68539 9.49049 8.31885 9.49049 8.96865C9.49049 11.9974 11.0111 14.671 13.3305 16.2676C14.7562 17.249 16.4837 17.8235 18.3454 17.8235ZM23.1974 8.84735C23.1974 11.661 20.9164 13.9419 18.1028 13.9419C15.2891 13.9419 13.0082 11.661 13.0082 8.84735C13.0082 8.6023 13.0255 8.36129 13.0589 8.12548C13.1247 7.66175 13.2529 7.21811 13.4348 6.80335C13.7751 6.02723 14.3034 5.35221 14.9619 4.83586C15.8273 4.15732 16.9178 3.75276 18.1028 3.75276C19.4223 3.75276 20.6247 4.25444 21.5296 5.07746C22.5542 6.00936 23.1974 7.35324 23.1974 8.84735Z" fill="#0BA58D"/>
<path fill-rule="evenodd" clip-rule="evenodd" d="M1.0776 30.5388C1.36809 31.0079 1.6782 31.4636 2.00678 31.9048C5.51141 36.61 11.0997 39.6554 17.4177 39.6554C23.9385 39.6554 29.7011 36.4091 33.1775 31.4444C33.2861 31.2894 33.3924 31.1328 33.4964 30.9745L33.5036 30.9631C33.7565 30.5615 33.9777 30.1379 34.1636 29.6957C34.6006 28.6557 34.8422 27.5133 34.8422 26.3145C34.8422 26.0869 34.8334 25.8612 34.8163 25.6379C34.6974 24.0853 34.1724 22.6463 33.3475 21.4269C31.7776 19.1063 29.1212 17.5809 26.1086 17.5809C22.3382 17.5809 19.1258 19.9702 17.9029 23.3172C17.1836 22.6849 16.5235 21.9867 15.932 21.2323C14.5921 19.3479 12.5243 18.0172 10.1388 17.6502C9.70157 17.5829 9.20422 17.5809 8.74814 17.5809C6.0188 17.5809 3.58139 18.8308 1.97708 20.7895C0.741442 22.298 0 24.227 0 26.3291C0 27.8551 0.390732 29.2899 1.0776 30.5388ZM31.4458 26.4358C31.4458 23.5552 29.1105 21.2199 26.2299 21.2199C23.6731 21.2199 21.546 23.0596 21.1 25.4874C23.2043 26.5593 25.5866 27.1636 28.11 27.1636C29.2507 27.1636 30.3625 27.0401 31.4328 26.8058C31.4414 26.6836 31.4458 26.5602 31.4458 26.4358ZM3.93684 26.4834C3.93684 23.6435 6.23907 21.3412 9.07901 21.3412C10.561 21.3412 11.8966 21.9682 12.8349 22.9713C13.0209 23.2229 13.213 23.4697 13.4109 23.7116C14.5662 25.1234 15.9209 26.3658 17.4319 27.3956C17.4335 27.3827 17.435 27.3698 17.4365 27.3569C17.4384 27.3721 17.4402 27.3873 17.4421 27.4026C18.8949 28.3913 20.492 29.1838 22.1953 29.7418C24.0566 30.3515 26.0448 30.6813 28.11 30.6813C28.5139 30.6813 28.9148 30.6687 29.3123 30.6439C29.3822 30.6395 29.452 30.6347 29.5217 30.6296C27.9793 32.3983 26.0472 33.8183 23.8592 34.7557C21.9622 35.5685 19.8728 36.0185 17.6782 36.0185C15.4227 36.0185 13.2782 35.5431 11.3394 34.6871C8.92479 33.6209 6.82932 31.9643 5.23604 29.9002C4.99954 29.6343 4.79021 29.3438 4.61239 29.033C4.18253 28.2815 3.93684 27.4112 3.93684 26.4834Z" fill="#0BA58D"/>
</svg>
